<svg width="200" height="146" viewBox="0 0 200 146" fill="none" xmlns="http://www.w3.org/2000/svg">
<path fill-rule="evenodd" clip-rule="evenodd" d="M98.2504 82.5441C98.0745 82.3168 98.2769 82.7 97.9352 82.0398C97.7942 81.7661 97.7478 81.6268 97.6184 81.3199L95.8817 77.7737C94.2363 74.9671 93.5297 73.8558 91.5973 71.4524C90.9985 70.7076 90.5308 70.3178 89.9021 69.6195C85.626 64.8673 83.8429 61.953 87.9183 54.9633C90.8758 49.891 91.2473 51.077 98.2504 51.077C99.4114 51.077 104.56 50.9393 105.273 51.1549C106.308 51.4668 107.804 53.784 108.546 55.0064C110.296 57.8892 111.762 62.1405 109.73 65.6735C107.804 69.0257 103.503 71.5121 99.3948 80.066C98.9453 81.0015 98.806 81.6965 98.2487 82.5441H98.2504ZM91.317 35.7191L105.214 35.8518L105.189 49.6173L91.322 49.6389L91.317 35.7191ZM138.16 42.8349C137.971 42.6641 138.004 42.6856 137.694 42.5148L133.466 40.4464C122.104 34.1765 121.188 25.9958 110.52 32.3984C105.532 35.3907 106.637 35.054 106.637 42.5927C106.637 44.1055 106.433 48.4313 106.657 49.6223C106.963 51.2528 115.532 57.6736 121.217 54.2036C125.295 51.7139 129.147 45.7393 138.159 42.8349H138.16ZM58.9609 42.4169L58.3057 42.8432C67.0785 45.5751 71.3878 51.8483 75.2608 54.2252C81.048 57.7764 89.5853 51.1135 89.8424 49.6273L89.801 35.608C89.4626 34.3324 80.9601 27.6479 75.1298 31.3252C72.4477 33.0171 70.235 35.7639 67.387 37.7245C64.7995 39.5076 62.333 40.9092 59.4867 42.1814C59.3788 42.2295 59.0587 42.3655 58.9609 42.4186V42.4169ZM98.2504 2.82222C99.3484 4.49916 99.9406 7.20946 103.351 11.9981C103.994 12.9021 104.203 13.1708 104.878 14.0018C105.494 14.7565 105.953 15.143 106.575 15.838C107.461 16.8282 109.03 18.5184 109.738 19.7525C113.114 25.6359 106.748 33.8448 105.275 34.2395L91.0218 34.1881C90.0265 33.8265 83.0401 25.7636 86.8369 19.5701C89.0877 15.8977 91.6404 15.1297 95.9713 7.49808C96.5236 6.52608 97.8108 3.35797 98.2504 2.82056V2.82222ZM86.5615 30.9885C84.4633 30.3764 82.093 28.1322 77.4669 28.8903C75.7369 29.1739 74.7234 29.8291 73.4894 30.6949L67.0951 36.1703C64.7928 37.9169 62.5486 39.2422 59.8001 40.4796C58.9808 40.8494 58.5196 41.0883 57.6803 41.3885C56.7946 41.7037 56.2157 41.7899 55.6484 42.3058C55.6717 43.5349 55.8176 43.4055 56.924 43.782C57.7384 44.059 58.3969 44.3443 59.1052 44.6445C60.515 45.24 61.8403 45.9085 63.1573 46.6565C68.5945 49.7401 69.5334 51.6276 73.0531 54.4159C78.832 58.9956 83.1496 55.6284 86.5781 54.3993C84.936 58.0435 82.3385 62.7077 86.3277 67.644C90.3915 72.6732 92.9309 74.1743 96.182 81.4974C97.0992 83.5658 97.8771 87.7424 99.3733 83.8329C99.6752 83.0417 99.9256 82.345 100.232 81.6699C102.059 77.6542 104.315 74.0001 107.212 70.9929C108.959 69.1783 111.46 66.3569 111.969 63.9119C112.915 59.3655 111.064 57.3667 109.898 54.3827C115.063 56.6518 119.317 58.7086 124.595 53.2946L127.687 50.5827C131.431 47.7363 134.433 45.6348 139.008 43.9661C143.757 42.2345 138.782 41.7352 134.818 39.5922C132.735 38.4659 130.869 37.3413 129.097 35.9779C124.247 32.2458 122.68 28.7758 117.179 28.7758C113.474 28.7758 112.49 30.1558 109.913 31.0001C117.231 17.2529 105.849 18.5566 99.5159 1.97131C98.6534 -0.289495 97.9568 -0.916482 97.0428 1.75402C95.5881 5.99862 92.1248 11.6548 89.1574 14.5674C83.1745 20.4376 83.1015 23.8793 86.5632 30.9902L86.5615 30.9885Z" fill="white"/>
<path d="M69.7227 139.032C70.4807 139.032 71.1077 139.282 71.602 139.782C72.0963 140.283 72.3435 140.911 72.3435 141.669C72.3435 142.427 72.0963 143.058 71.602 143.557C71.1077 144.058 70.4824 144.307 69.7227 144.307C69.0211 144.307 68.4273 144.076 67.9413 143.617L67.8102 144.186H67.0273V137.342H68.0624V139.616C68.5285 139.224 69.0825 139.029 69.7211 139.029L69.7227 139.032ZM68.4588 142.845C68.7723 143.162 69.1654 143.321 69.6381 143.321C70.1109 143.321 70.5023 143.164 70.8125 142.85C71.1227 142.537 71.2786 142.144 71.2786 141.671C71.2786 141.198 71.1227 140.805 70.8125 140.492C70.5023 140.178 70.1109 140.021 69.6381 140.021C69.328 140.021 69.046 140.092 68.7939 140.235C68.5417 140.377 68.3444 140.575 68.2017 140.827C68.0591 141.079 67.9877 141.359 67.9877 141.671C67.9877 142.137 68.1453 142.529 68.4588 142.845Z" fill="white"/>
<path d="M76.8575 139.152H77.9672L75.655 144.281C75.363 144.921 75.0661 145.367 74.7642 145.62C74.4624 145.872 74.0609 145.998 73.5567 145.998H73.0442V145.066H73.4738C73.8039 145.066 74.046 145.001 74.2003 144.87C74.3562 144.739 74.527 144.468 74.7128 144.059L74.8239 143.825L72.6328 139.154H73.7607L75.3547 142.669L76.8558 139.154L76.8575 139.152Z" fill="white"/>
<path d="M84.9634 137.66V138.657H83.0426V144.185H81.9794V138.657H80.0586V137.66H84.9634Z" fill="white"/>
<path d="M90.8031 144.187H89.6005L88.0148 141.643L86.4291 144.187H85.2266L87.3613 140.765L85.3758 137.66H86.5784L88.0148 139.954L89.4413 137.66H90.6339L88.6667 140.802L90.8014 144.185L90.8031 144.187Z" fill="white"/>
<path d="M95.9594 137.66V138.657H94.0387V144.185H92.9755V138.657H91.0547V137.66H95.9594Z" fill="white"/>
<path d="M101.769 140.876H105.255C105.242 141.876 104.929 142.699 104.313 143.343C103.698 143.986 102.915 144.308 101.964 144.308C101.014 144.308 100.203 143.988 99.5676 143.348C98.9323 142.707 98.6172 141.9 98.6172 140.924C98.6172 139.949 98.9323 139.149 99.5643 138.509C100.195 137.869 100.986 137.549 101.936 137.549C102.732 137.549 103.431 137.774 104.034 138.226C104.637 138.677 105.013 139.256 105.162 139.964H104.053C103.917 139.548 103.656 139.213 103.275 138.962C102.893 138.712 102.455 138.584 101.964 138.584C101.53 138.584 101.14 138.682 100.798 138.877C100.457 139.073 100.19 139.35 99.9972 139.707C99.8048 140.065 99.7086 140.47 99.7086 140.923C99.7086 141.619 99.9159 142.185 100.334 142.619C100.75 143.054 101.294 143.271 101.966 143.271C102.482 143.271 102.935 143.137 103.328 142.867C103.719 142.596 103.975 142.24 104.093 141.798H101.77V140.876H101.769Z" fill="white"/>
<path d="M110.187 144.187L108.789 141.772H107.548V144.187H106.477V137.66H109.021C109.431 137.66 109.804 137.748 110.141 137.921C110.476 138.095 110.739 138.34 110.929 138.657C111.118 138.974 111.212 139.329 111.212 139.72C111.212 140.161 111.091 140.551 110.849 140.89C110.607 141.228 110.283 141.472 109.879 141.621L111.39 144.185H110.187V144.187ZM107.548 138.667V140.765H108.956C109.13 140.765 109.29 140.74 109.436 140.691C109.582 140.641 109.704 140.57 109.804 140.477C109.903 140.384 109.981 140.271 110.038 140.142C110.094 140.011 110.122 139.868 110.122 139.714C110.122 139.408 110.015 139.16 109.801 138.962C109.587 138.767 109.305 138.669 108.956 138.669H107.548V138.667Z" fill="white"/>
<path d="M115.546 144.308C114.557 144.308 113.738 143.986 113.084 143.343C112.432 142.699 112.105 141.893 112.105 140.923C112.105 139.952 112.432 139.146 113.084 138.502C113.736 137.859 114.557 137.537 115.546 137.537C116.534 137.537 117.354 137.859 118.007 138.502C118.659 139.146 118.986 139.952 118.986 140.923C118.986 141.556 118.838 142.133 118.543 142.653C118.248 143.172 117.838 143.576 117.312 143.868C116.786 144.16 116.197 144.306 115.546 144.306V144.308ZM113.867 142.606C114.315 143.057 114.875 143.283 115.551 143.283C116.226 143.283 116.785 143.057 117.229 142.606C117.674 142.155 117.896 141.594 117.896 140.923C117.896 140.251 117.674 139.69 117.229 139.239C116.785 138.788 116.226 138.562 115.551 138.562C114.875 138.562 114.315 138.788 113.867 139.239C113.419 139.69 113.195 140.251 113.195 140.923C113.195 141.594 113.419 142.155 113.867 142.606Z" fill="white"/>
<path d="M122.781 144.308C122.023 144.308 121.395 144.069 120.899 143.59C120.401 143.112 120.152 142.497 120.152 141.744V137.66H121.234V141.679C121.234 142.159 121.376 142.545 121.662 142.84C121.947 143.136 122.32 143.283 122.781 143.283C123.242 143.283 123.604 143.136 123.891 142.84C124.176 142.545 124.319 142.159 124.319 141.679V137.66H125.39V141.744C125.39 142.495 125.143 143.111 124.649 143.59C124.155 144.069 123.531 144.308 122.78 144.308H122.781Z" fill="white"/>
<path d="M129.398 137.66C129.814 137.66 130.192 137.753 130.531 137.94C130.869 138.126 131.134 138.385 131.328 138.715C131.521 139.045 131.617 139.412 131.617 139.815C131.617 140.43 131.406 140.943 130.983 141.352C130.561 141.762 130.033 141.968 129.398 141.968H128.056V144.187H126.984V137.66H129.399H129.398ZM129.341 140.951C129.516 140.951 129.675 140.923 129.821 140.866C129.967 140.81 130.093 140.732 130.199 140.633C130.305 140.533 130.386 140.412 130.446 140.269C130.506 140.127 130.534 139.974 130.534 139.813C130.534 139.596 130.483 139.402 130.38 139.231C130.277 139.06 130.136 138.926 129.955 138.826C129.774 138.727 129.57 138.677 129.34 138.677H128.053V140.951H129.34H129.341Z" fill="white"/>
<path fill-rule="evenodd" clip-rule="evenodd" d="M148.978 103.411C164.243 99.9677 168.294 122.856 154.323 126.25C147.073 128.011 141.629 123.09 140.645 117.366C139.434 110.32 142.999 104.76 148.978 103.409V103.411ZM149.455 99.5961C140.97 100.553 134.264 107.41 135.641 117.109C136.2 121.048 138.252 124.895 141.392 126.988C144.75 129.229 148.934 130.77 153.882 130.06C162.475 128.829 168.933 122.541 167.617 112.609C166.498 104.156 159.254 98.4898 149.455 99.5945V99.5961Z" fill="white"/>
<path fill-rule="evenodd" clip-rule="evenodd" d="M6.64321 126.493L6.65648 116.209C11.4086 115.885 17.4811 115.922 17.6039 121.165C17.7332 126.722 11.5247 126.657 6.64487 126.493H6.64321ZM6.71287 113.012L6.63823 103.667C11.057 103.623 15.7428 103.447 15.7859 108.297C15.8291 113.094 10.9193 113.107 6.71287 113.012ZM1.95574 129.817C8.17418 129.646 16.3316 130.911 20.4353 126.884C23.0643 124.305 24.6118 115.66 15.902 114.084C17.0913 113.225 19.7817 112.463 20.2014 108.755C21.3658 98.4707 6.94509 100.095 0.00013753 100.393C-0.0181081 102.017 1.78489 99.7678 1.94579 105.973L1.95574 129.817Z" fill="white"/>
<path fill-rule="evenodd" clip-rule="evenodd" d="M50.3004 126.535H48.786L47.1654 126.507L47.1787 116.185C51.8031 116.074 56.9053 115.889 57.9171 119.826C59.2573 125.03 54.9215 126.535 50.3004 126.535ZM47.2633 113.025L47.1588 103.648C51.4897 103.72 56.2816 103.453 56.3065 108.301C56.3314 113.177 51.7053 113.05 47.2633 113.023V113.025ZM40.5273 100.475C40.8674 101.515 40.3864 100.429 41.3451 101.349C43.1249 103.056 42.5725 111.786 42.5725 114.103C42.5725 119.275 42.6571 124.619 42.5078 129.774C48.4824 129.998 57.2586 130.549 60.8812 126.956C63.5716 124.289 64.0211 118.328 60.3885 115.627C59.3286 114.839 57.9121 114.412 56.4044 114.028C57.6235 113.25 58.3915 113.37 59.2706 112.225C61.7968 108.933 61.1184 104.449 57.8325 102.028C54.5101 99.5795 41.5474 100.15 40.5273 100.474V100.475Z" fill="white"/>
<path fill-rule="evenodd" clip-rule="evenodd" d="M102.584 100.106C103.272 102.001 104.496 100.237 104.652 105.834L104.664 129.567L109.305 129.548L109.283 116.297L125.205 116.304L125.178 129.567H129.808L129.795 100.1L125.167 100.09L125.182 112.81L109.285 112.897L109.278 100.126L102.582 100.106H102.584Z" fill="white"/>
<path fill-rule="evenodd" clip-rule="evenodd" d="M170.222 100.222C170.544 101.009 171.167 100.931 171.932 101.493C172.426 101.855 173.113 102.626 173.586 103.115C174.621 104.183 181.367 113.12 181.796 114.217C180.93 114.822 173.947 123.92 172.579 125.592L169.523 129.452C174.501 129.578 174.468 130.104 175.802 128.316C176.23 127.742 176.603 127.326 177.036 126.768C177.905 125.649 178.651 124.673 179.492 123.675C180.351 122.656 181.005 121.784 181.849 120.731C182.494 119.924 183.841 118.423 184.19 117.543C185.659 118.261 192.743 129.248 193.893 129.563H199.284C198.544 128.025 188.257 115.098 187.525 113.595L195.613 103.454C196.172 102.735 197.977 100.768 198.103 100.071C192.07 100.222 193.842 98.8905 190.149 103.541L184.808 110.027L178.205 101.272C177.508 100.304 177.606 100.088 176.244 100.065C174.904 100.043 171.234 99.8625 170.222 100.219V100.222Z" fill="white"/>
<path fill-rule="evenodd" clip-rule="evenodd" d="M80.8532 123.443L80.8963 128.046C82.1669 129.299 85.3416 130.159 87.6406 130.266C92.6316 130.498 97.8051 128.176 98.1318 122.438C98.6543 113.246 86.7034 112.612 85.4461 107.707C84.6599 104.64 87.1977 103.217 89.9163 103.192C93.0695 103.164 94.9472 104.38 96.8397 105.525C96.8198 101.124 97.4501 100.568 92.9418 99.6992C90.1071 99.1518 86.8594 99.4969 84.6301 100.729C80.0123 103.282 79.6971 110.172 83.7178 113.488C85.2471 114.749 87.5013 116.09 89.5381 117.256C91.4639 118.358 93.9337 119.696 93.5837 122.861C93.2735 125.671 90.7954 126.869 87.6356 126.524C85.9288 126.338 83.6116 125.5 82.2581 124.533C81.5864 124.054 81.525 123.8 80.8516 123.442L80.8532 123.443Z" fill="white"/>
<path fill-rule="evenodd" clip-rule="evenodd" d="M27.1055 100.36C28.0045 103.3 29.2203 97.5903 29.2253 114.103C29.2269 119.294 29.222 124.586 29.1241 129.774L33.7585 129.824C33.7004 125.315 34.2926 102.691 33.5777 100.344L27.1055 100.36Z" fill="white"/>
<path fill-rule="evenodd" clip-rule="evenodd" d="M67.5703 100.365C68.1442 102.277 69.4513 100.246 69.6055 106.101L69.6238 129.817L74.2631 129.81L74.2366 100.363H67.5703V100.365Z" fill="white"/>
<path fill-rule="evenodd" clip-rule="evenodd" d="M97.4365 17.982C104.235 16.9619 105.086 26.856 98.9791 27.6787C96.0349 28.0751 93.7658 26.0134 93.3561 23.5502C92.8718 20.6475 95.0363 18.3419 97.4381 17.982H97.4365ZM104.421 24.1689C105.403 20.407 102.651 17.2787 99.7305 16.6185C95.8458 15.7411 92.613 18.3685 92.0275 21.4553C90.4982 29.5033 102.245 32.5055 104.421 24.1689Z" fill="white"/>
<path fill-rule="evenodd" clip-rule="evenodd" d="M83.0982 43.8532C82.5591 46.2285 80.1408 48.1559 77.17 47.5007C74.7865 46.9749 72.7413 44.4122 73.5806 41.4149C75.299 35.291 84.5247 37.5734 83.0982 43.8532ZM76.4668 36.6512C68.8036 38.8357 71.7743 51.0254 80.0047 48.8293C82.9207 48.0514 85.5531 44.8501 84.4368 41.0036C83.5643 37.9964 80.4261 35.5232 76.4684 36.6512H76.4668Z" fill="white"/>
<path fill-rule="evenodd" clip-rule="evenodd" d="M97.0168 57.9049C103.53 56.2363 105.625 66.0093 99.3804 67.4192C93.0641 68.8457 90.7983 59.4989 97.0168 57.9049ZM104.415 64.0404C105.388 60.3698 102.694 57.1386 99.752 56.4785C91.3507 54.5942 88.866 66.7839 96.5706 68.7495C100.731 69.8094 103.6 67.1123 104.415 64.0421V64.0404Z" fill="white"/>
<path fill-rule="evenodd" clip-rule="evenodd" d="M116.93 37.9632C123.475 36.2448 125.412 46.1539 119.327 47.4974C112.934 48.9089 110.695 39.602 116.93 37.9632ZM116.185 36.7109C113.241 37.5983 110.804 40.9373 112.164 44.8319C113.103 47.5206 116.251 49.944 120.055 48.7547C127.812 46.3313 124.566 34.1847 116.185 36.7109Z" fill="white"/>
</svg>
