<?xml version="1.0" encoding="UTF-8"?>
<svg id="_Слой_2" data-name="Слой 2" xmlns="http://www.w3.org/2000/svg" viewBox="0 0 403.54 89.28">
  <defs>
    <style>
      .cls-1 {
        fill: #ffffff;
      }
    </style>
  </defs>
  <g id="_Слой_1-2" data-name="Слой 1">
    <g>
      <g>
        <path class="cls-1" d="m12.35,56.87H0V0h12.35v22.99L32.17,0h14.3l-21.45,25.02,23.07,31.85h-15.27l-15.92-22.5-4.55,5.36v17.14Z"/>
        <path class="cls-1" d="m63.37,56.87h-13.32L72.55,0h14.3l22.5,56.87h-13.24l-2.19-5.77c-4.71-3.17-9.51-4.71-14.22-4.71s-9.42,1.54-14.22,4.71l-2.11,5.77Zm6.82-18.36c3.17-1.38,6.34-2.03,9.51-2.03s6.42.65,9.59,2.03l-9.59-25.67-9.51,25.67Z"/>
        <path class="cls-1" d="m128.45,56.95h-12.35V0h12.35v.16l.16-.16,18.28,36.97L165.09,0l.24.16v-.16h12.35v56.95h-12.35v-31.93l-15.44,31.93h-6.01v-.08l-15.44-31.85v31.93Z"/>
        <path class="cls-1" d="m197.67,56.87h-13.32L206.85,0h14.3l22.5,56.87h-13.24l-2.19-5.77c-4.71-3.17-9.51-4.71-14.22-4.71s-9.42,1.54-14.22,4.71l-2.11,5.77Zm6.82-18.36c3.17-1.38,6.34-2.03,9.51-2.03s6.42.65,9.59,2.03l-9.59-25.67-9.51,25.67Z"/>
        <path class="cls-1" d="m250.4,0h12.35v46.23h24.29v10.64h-36.64V0Z"/>
        <path class="cls-1" d="m302.8,56.87h-13.32L311.98,0h14.3l22.5,56.87h-13.24l-2.19-5.77c-4.71-3.17-9.51-4.71-14.22-4.71s-9.42,1.54-14.22,4.71l-2.11,5.77Zm6.82-18.36c3.17-1.38,6.34-2.03,9.51-2.03s6.42.65,9.59,2.03l-9.59-25.67-9.51,25.67Z"/>
        <path class="cls-1" d="m367.79,56.87h-12.35V0h12.35v22.99L387.62,0h14.3l-21.45,25.02,23.07,31.85h-15.27l-15.92-22.5-4.55,5.36v17.14Z"/>
      </g>
      <g>
        <path class="cls-1" d="m33.37,85.84v-10.55h-4.13v-1.5h9.96v1.5h-4.13v10.55h-1.7Z"/>
        <path class="cls-1" d="m45.85,85.98c-1.58,0-2.83-.45-3.73-1.36-.91-.91-1.36-2.23-1.36-3.97v-6.85h1.72v6.78c0,1.34.3,2.32.89,2.94s1.43.93,2.5.93,1.93-.31,2.52-.93.89-1.6.89-2.94v-6.78h1.67v6.85c0,1.74-.45,3.07-1.35,3.97-.9.91-2.15,1.36-3.74,1.36Z"/>
        <path class="cls-1" d="m54.47,85.84v-12.04h4.7c1.06,0,1.96.17,2.7.5.75.33,1.32.81,1.72,1.45.4.63.6,1.38.6,2.25s-.2,1.62-.6,2.25c-.4.63-.97,1.1-1.72,1.44-.75.33-1.65.5-2.7.5h-3.75l.77-.79v4.46h-1.72Zm1.72-4.28l-.77-.84h3.7c1.1,0,1.94-.24,2.5-.71.57-.48.85-1.14.85-2s-.28-1.53-.85-2c-.57-.47-1.4-.71-2.5-.71h-3.7l.77-.86v7.12Zm6.33,4.28l-3.06-4.37h1.84l3.1,4.37h-1.88Z"/>
        <path class="cls-1" d="m65.15,85.84l5.45-12.04h1.7l5.47,12.04h-1.81l-4.87-11.08h.69l-4.87,11.08h-1.77Zm2.32-3.01l.46-1.38h6.78l.5,1.38h-7.74Z"/>
        <path class="cls-1" d="m79.57,85.84v-12.04h4.7c1.06,0,1.96.17,2.7.5.75.33,1.32.81,1.72,1.45.4.63.6,1.38.6,2.25s-.2,1.62-.6,2.25-.97,1.1-1.72,1.44c-.75.33-1.65.5-2.7.5h-3.75l.77-.79v4.46h-1.72Zm1.72-4.28l-.77-.84h3.7c1.1,0,1.94-.24,2.5-.71.57-.48.85-1.14.85-2s-.28-1.53-.85-2c-.57-.47-1.4-.71-2.5-.71h-3.7l.77-.86v7.12Zm6.33,4.28l-3.06-4.37h1.84l3.1,4.37h-1.88Z"/>
        <path class="cls-1" d="m91.42,80.47v-1.43h4.63v1.43h-4.63Z"/>
        <path class="cls-1" d="m100.01,85.98c-.71,0-1.38-.15-2-.45s-1.12-.73-1.51-1.29l1-1.17c.33.46.71.81,1.13,1.06.42.25.88.37,1.39.37,1.38,0,2.06-.81,2.06-2.44v-6.76h-4.35v-1.5h6.06v8.17c0,1.34-.32,2.35-.95,3.01-.64.67-1.57,1-2.81,1Z"/>
        <path class="cls-1" d="m112.72,85.98c-.92,0-1.77-.16-2.56-.46-.79-.31-1.47-.74-2.04-1.3-.57-.56-1.02-1.21-1.34-1.95-.32-.75-.48-1.56-.48-2.44s.16-1.7.48-2.44c.32-.75.77-1.4,1.34-1.95.57-.56,1.25-.99,2.03-1.3.78-.31,1.63-.46,2.56-.46s1.76.15,2.54.46c.77.3,1.45.73,2.03,1.29.58.56,1.03,1.21,1.34,1.95.32.75.47,1.57.47,2.46s-.16,1.71-.47,2.46c-.32.75-.76,1.4-1.34,1.95-.58.56-1.26.99-2.03,1.29-.77.3-1.62.46-2.54.46Zm0-1.53c.66,0,1.28-.11,1.85-.34.57-.23,1.06-.55,1.48-.97.42-.42.75-.91.98-1.47s.35-1.18.35-1.84-.12-1.28-.35-1.84c-.24-.56-.56-1.05-.98-1.47-.42-.42-.91-.74-1.48-.97-.57-.23-1.18-.34-1.85-.34s-1.3.11-1.87.34c-.57.23-1.06.55-1.49.97-.42.42-.75.91-.99,1.47-.24.56-.35,1.18-.35,1.84s.12,1.28.35,1.84.56,1.05.99,1.47c.42.42.92.74,1.49.97.57.23,1.19.34,1.87.34Z"/>
        <path class="cls-1" d="m124.13,85.84v-4.61l.4,1.07-5.18-8.5h1.84l4.35,7.17h-1l4.37-7.17h1.7l-5.16,8.5.38-1.07v4.61h-1.7Z"/>
        <path class="cls-1" d="m136.98,85.84v-12.04h1.41l5.4,9.1h-.76l5.33-9.1h1.41l.02,12.04h-1.65l-.02-9.45h.4l-4.75,7.98h-.79l-4.78-7.98h.43v9.45h-1.65Z"/>
        <path class="cls-1" d="m151.59,85.84l5.45-12.04h1.7l5.47,12.04h-1.81l-4.87-11.08h.69l-4.87,11.08h-1.77Zm2.32-3.01l.46-1.38h6.78l.5,1.38h-7.74Z"/>
        <path class="cls-1" d="m167.82,85.98c-.71,0-1.38-.15-2-.45s-1.12-.73-1.51-1.29l1-1.17c.33.46.71.81,1.13,1.06.42.25.88.37,1.39.37,1.38,0,2.06-.81,2.06-2.44v-6.76h-4.35v-1.5h6.06v8.17c0,1.34-.32,2.35-.95,3.01-.64.67-1.57,1-2.81,1Z"/>
        <path class="cls-1" d="m175.09,85.84v-12.04h1.41l5.4,9.1h-.76l5.33-9.1h1.41l.02,12.04h-1.65l-.02-9.45h.4l-4.75,7.98h-.79l-4.78-7.98h.43v9.45h-1.65Z"/>
        <path class="cls-1" d="m196.51,85.98c-1.58,0-2.83-.45-3.73-1.36-.91-.91-1.36-2.23-1.36-3.97v-6.85h1.72v6.78c0,1.34.3,2.32.89,2.94s1.43.93,2.5.93,1.93-.31,2.52-.93.89-1.6.89-2.94v-6.78h1.67v6.85c0,1.74-.45,3.07-1.35,3.97-.9.91-2.15,1.36-3.74,1.36Z"/>
        <path class="cls-1" d="m203.05,85.84l5.45-12.04h1.7l5.47,12.04h-1.81l-4.87-11.08h.69l-4.87,11.08h-1.77Zm2.32-3.01l.46-1.38h6.78l.5,1.38h-7.74Z"/>
        <path class="cls-1" d="m220.98,85.98c-.92,0-1.8-.14-2.63-.42-.84-.28-1.5-.65-1.98-1.09l.64-1.34c.46.4,1.04.73,1.75,1,.71.26,1.45.4,2.22.4.7,0,1.27-.08,1.7-.24.44-.16.76-.38.96-.66.21-.28.31-.6.31-.95,0-.41-.14-.75-.4-1-.27-.25-.62-.46-1.05-.61-.43-.16-.9-.29-1.42-.4s-1.03-.25-1.56-.4c-.52-.16-1-.35-1.43-.59-.43-.24-.78-.56-1.04-.97-.26-.41-.4-.93-.4-1.57s.16-1.19.49-1.71.83-.94,1.51-1.26,1.55-.47,2.61-.47c.7,0,1.39.09,2.08.28.69.18,1.28.45,1.79.79l-.57,1.38c-.52-.34-1.06-.59-1.63-.75-.57-.15-1.13-.23-1.67-.23-.68,0-1.23.09-1.67.26s-.75.4-.95.69c-.2.29-.3.61-.3.96,0,.42.14.76.4,1.02.27.25.62.45,1.05.6.43.15.9.28,1.42.4s1.03.26,1.56.4c.52.15,1,.34,1.43.58.43.24.78.56,1.04.96.26.4.4.92.4,1.55s-.17,1.17-.5,1.69c-.33.52-.85.94-1.54,1.26-.69.32-1.57.47-2.62.47Z"/>
        <path class="cls-1" d="m228.15,85.84v-12.04h1.72v12.04h-1.72Z"/>
        <path class="cls-1" d="m235.83,87.56l5.68-16.21h1.5l-5.68,16.21h-1.5Z"/>
        <path class="cls-1" d="m248.56,85.84v-12.77h1.65v6.07l-.17,2.12.1,2.12v2.46h-1.58Zm4.83.1c-.78,0-1.48-.17-2.11-.52-.63-.35-1.12-.87-1.48-1.56-.36-.69-.54-1.55-.54-2.58s.19-1.89.56-2.58c.37-.69.87-1.2,1.5-1.55.62-.34,1.32-.52,2.07-.52.89,0,1.69.2,2.37.58.69.39,1.23.93,1.63,1.63s.6,1.51.6,2.43-.2,1.74-.6,2.44c-.4.7-.95,1.24-1.63,1.63-.69.39-1.48.58-2.37.58Zm-.14-1.45c.59,0,1.11-.13,1.57-.4.46-.26.83-.64,1.1-1.13.27-.49.4-1.05.4-1.69s-.14-1.22-.4-1.69c-.27-.48-.64-.85-1.1-1.11-.46-.26-.99-.4-1.57-.4s-1.09.13-1.56.4c-.46.26-.83.63-1.1,1.11-.27.48-.4,1.04-.4,1.69s.14,1.21.4,1.69c.27.49.64.86,1.1,1.13s.98.4,1.56.4Z"/>
        <path class="cls-1" d="m260.43,89.28c-.44,0-.86-.07-1.27-.22-.41-.14-.77-.35-1.07-.63l.71-1.24c.23.22.48.38.76.5.28.11.57.17.88.17.4,0,.73-.1,1-.31.26-.21.51-.57.74-1.1l.57-1.26.17-.21,3.58-8.28h1.62l-4.42,10.03c-.26.64-.56,1.15-.89,1.51-.33.37-.69.63-1.08.78-.39.16-.82.23-1.29.23Zm2.17-3.15l-4.16-9.41h1.72l3.54,8.12-1.1,1.29Z"/>
        <path class="cls-1" d="m276.91,85.84v-10.55h-4.13v-1.5h9.96v1.5h-4.13v10.55h-1.7Z"/>
        <path class="cls-1" d="m282.52,85.84l5.01-6.83v1.33l-4.73-6.54h1.96l3.75,5.14-.77.02,3.73-5.16h1.88l-4.7,6.44v-1.24l5.01,6.85h-1.98l-3.99-5.49h.76l-3.94,5.49h-1.98Z"/>
        <path class="cls-1" d="m297.56,85.84v-10.55h-4.13v-1.5h9.96v1.5h-4.13v10.55h-1.7Z"/>
        <path class="cls-1" d="m315.33,85.98c-.93,0-1.78-.15-2.56-.46-.78-.3-1.46-.73-2.03-1.29-.57-.56-1.02-1.21-1.34-1.95-.32-.75-.48-1.57-.48-2.46s.16-1.71.48-2.46c.32-.75.77-1.4,1.35-1.95.58-.56,1.26-.99,2.04-1.29.78-.3,1.64-.46,2.58-.46s1.82.16,2.62.46c.79.31,1.46.77,2.01,1.39l-1.07,1.07c-.49-.48-1.03-.83-1.61-1.06-.58-.22-1.21-.34-1.88-.34s-1.33.11-1.92.34c-.59.23-1.1.55-1.53.96s-.76.9-1,1.47c-.24.57-.35,1.18-.35,1.85s.12,1.26.35,1.83.57,1.06,1,1.48.94.74,1.52.97c.59.23,1.22.34,1.91.34.64,0,1.26-.1,1.85-.3.59-.2,1.14-.54,1.64-1.01l.98,1.31c-.6.51-1.29.89-2.09,1.14-.8.26-1.62.39-2.47.39Zm2.91-1.76v-4.47h1.65v4.7l-1.65-.22Z"/>
        <path class="cls-1" d="m323.18,85.84v-12.04h4.7c1.06,0,1.96.17,2.7.5.75.33,1.32.81,1.72,1.45.4.63.6,1.38.6,2.25s-.2,1.62-.6,2.25c-.4.63-.98,1.1-1.72,1.44-.75.33-1.65.5-2.7.5h-3.75l.77-.79v4.46h-1.72Zm1.72-4.28l-.77-.84h3.7c1.1,0,1.94-.24,2.5-.71.57-.48.85-1.14.85-2s-.28-1.53-.85-2c-.57-.47-1.4-.71-2.5-.71h-3.7l.77-.86v7.12Zm6.33,4.28l-3.06-4.37h1.84l3.1,4.37h-1.88Z"/>
        <path class="cls-1" d="m341.12,85.98c-.92,0-1.77-.16-2.56-.46s-1.47-.74-2.04-1.3c-.57-.56-1.02-1.21-1.34-1.95-.32-.75-.48-1.56-.48-2.44s.16-1.7.48-2.44c.32-.75.77-1.4,1.34-1.95.57-.56,1.25-.99,2.03-1.3s1.63-.46,2.56-.46,1.76.15,2.54.46c.77.3,1.45.73,2.03,1.29.58.56,1.03,1.21,1.34,1.95.32.75.47,1.57.47,2.46s-.16,1.71-.47,2.46c-.32.75-.76,1.4-1.34,1.95-.58.56-1.26.99-2.03,1.29-.77.3-1.62.46-2.54.46Zm0-1.53c.66,0,1.28-.11,1.85-.34.57-.23,1.06-.55,1.48-.97.42-.42.75-.91.98-1.47.23-.56.35-1.18.35-1.84s-.12-1.28-.35-1.84c-.24-.56-.56-1.05-.98-1.47-.42-.42-.91-.74-1.48-.97-.57-.23-1.18-.34-1.85-.34s-1.3.11-1.87.34c-.57.23-1.06.55-1.49.97-.42.42-.75.91-.99,1.47-.24.56-.35,1.18-.35,1.84s.12,1.28.35,1.84.56,1.05.99,1.47c.42.42.92.74,1.49.97.57.23,1.19.34,1.87.34Z"/>
        <path class="cls-1" d="m355.13,85.98c-1.58,0-2.83-.45-3.73-1.36-.91-.91-1.36-2.23-1.36-3.97v-6.85h1.72v6.78c0,1.34.3,2.32.89,2.94.59.62,1.43.93,2.5.93s1.93-.31,2.52-.93c.59-.62.89-1.6.89-2.94v-6.78h1.67v6.85c0,1.74-.45,3.07-1.35,3.97-.9.91-2.15,1.36-3.74,1.36Z"/>
        <path class="cls-1" d="m363.75,85.84v-12.04h4.7c1.06,0,1.96.17,2.7.5.75.33,1.32.81,1.72,1.45.4.63.6,1.38.6,2.25s-.2,1.62-.6,2.25c-.4.63-.98,1.11-1.72,1.45-.75.34-1.65.51-2.7.51h-3.75l.77-.81v4.46h-1.72Zm1.72-4.28l-.77-.86h3.7c1.1,0,1.94-.24,2.5-.71.57-.47.85-1.14.85-2s-.28-1.53-.85-2c-.57-.47-1.4-.71-2.5-.71h-3.7l.77-.86v7.12Z"/>
      </g>
    </g>
  </g>
</svg>